<svg width="299" height="296" viewBox="0 0 299 296" fill="none" xmlns="http://www.w3.org/2000/svg">
<path d="M53.5499 262.542C58.1592 266.372 65.4301 265.983 69.6499 261.016C69.6499 261.016 69.6495 260.627 70.039 260.627L106.849 216.546L145.184 271.371C148.236 275.591 151.708 279.421 155.149 283.251C158.59 286.692 162.42 290.165 166.64 293.217C171.639 297.047 178.91 295.911 182.351 290.912C186.181 285.556 185.045 278.642 180.047 274.812C176.995 272.507 174.301 269.813 171.607 267.151C168.912 264.457 166.251 261.406 163.946 257.965L82.6664 141.791C75.3629 131.436 66.5658 122.996 56.211 116.115C48.1609 111.116 39.7216 107.286 30.5354 105.013C32.061 100.404 33.9758 96.1842 35.891 91.9644C40.5003 83.1353 45.8565 74.6957 52.3809 67.0351L58.1264 68.1712C67.3126 69.6968 76.1415 72.7805 83.802 77.7469C91.8521 82.7133 98.377 89.6273 103.733 96.8983L185.013 213.462C192.317 223.817 201.113 232.257 211.468 239.138C221.822 245.663 233.313 249.883 245.583 252.187L249.057 252.577C253.244 253.356 257.496 251.798 259.768 248.746C269.344 238.392 277.394 226.901 283.529 214.241C289.664 201.582 294.241 187.786 296.545 173.991C301.155 148.315 298.85 121.86 290.021 96.9308C280.802 72.7805 265.87 50.9349 245.94 34.0557L245.551 33.6662C240.941 29.8359 234.06 30.2254 229.84 34.4452L229.451 34.8347L194.556 76.2213L158.136 24.0905C155.085 19.8707 152 16.4299 148.56 12.5996C144.729 8.76933 140.121 5.32856 135.544 1.85534C130.545 -1.58543 123.241 -0.0598037 119.801 4.93904C116.36 10.2949 117.496 17.2089 122.884 21.0392C126.325 23.3439 129.408 26.0056 132.46 28.6998C134.764 31.394 137.426 34.4452 139.374 37.1394L222.18 155.619C229.061 165.194 237.5 174.023 247.855 180.548C254.38 184.768 261.262 188.208 268.565 190.513C267.04 195.122 265.092 199.699 262.82 204.309C258.6 213.138 253.212 221.577 246.72 228.848C238.67 227.323 230.619 224.239 223.738 219.662C215.688 214.663 209.163 208.171 203.807 200.478L122.527 83.9143C115.256 73.9491 106.427 65.12 96.072 58.628C85.7173 51.714 74.2264 47.4942 61.9565 45.579L49.6865 43.2744C45.8562 42.4953 41.637 44.0534 38.9428 47.4942C29.7566 57.8489 21.7059 69.3398 15.571 81.6097C10.9616 90.8283 7.52147 100.404 4.82729 110.369V111.148C3.69119 114.589 2.91189 118.419 2.13285 121.893C-2.08695 147.958 -0.172222 174.413 9.01397 198.953C17.8431 223.493 33.1649 245.728 53.4849 262.607L53.5499 262.542ZM260.19 161.332C252.53 156.333 246.395 149.841 241.039 142.148L208.449 95.7622L239.513 58.9526C252.172 72.0015 262.137 87.7122 268.662 104.948C275.933 125.268 277.848 146.725 274.407 168.213C269.441 166.298 264.832 163.993 260.223 161.299L260.19 161.332ZM24.7899 127.216C31.7039 128.742 38.1956 131.436 43.9735 135.266C52.0236 140.622 58.5485 147.146 63.9044 154.807L93.4101 196.973L59.6845 237.223C46.6355 224.174 36.6703 208.464 30.5354 191.227C22.8748 170.518 20.9596 148.672 24.7899 127.184V127.216Z" fill="url(#paint0_linear_8385_5071)"/>
<defs>
<linearGradient id="paint0_linear_8385_5071" x1="149.432" y1="0" x2="149.432" y2="295.5" gradientUnits="userSpaceOnUse">
<stop stop-color="#005C97"/>
<stop offset="1" stop-color="#363795"/>
</linearGradient>
</defs>
</svg>
