<svg width="952" height="205" viewBox="0 0 952 205" fill="none" xmlns="http://www.w3.org/2000/svg">
<path d="M42.0715 160.755L58.4515 141.139L75.8192 165.977L75.8306 165.994L75.8422 166.01C77.3928 168.154 79.139 170.097 80.7777 171.92C80.8552 172.007 80.9325 172.092 81.0095 172.178L81.0542 172.228L81.1015 172.275C82.8788 174.053 84.8956 175.886 87.1462 177.516C90.7513 180.252 96.0094 179.483 98.5683 175.789C101.261 172.004 100.458 167.025 96.8858 164.287L96.879 164.282L96.8721 164.277C95.5397 163.27 94.3424 162.087 93.0098 160.77L92.897 160.659C92.8952 160.657 92.8934 160.655 92.8915 160.654C91.6239 159.385 90.4039 157.981 89.3618 156.425L89.3476 156.404L89.3331 156.383L48.5387 98.0752L48.5332 98.0674C44.6845 92.6108 40.0434 88.1597 34.596 84.5395L34.5639 84.5182L34.5311 84.4978C31.0904 82.3613 27.4812 80.6116 23.6077 79.3804C24.1172 78.1227 24.6776 76.8837 25.2615 75.597C27.2766 71.7445 29.5642 68.0835 32.2654 64.7299L33.6887 65.0114L33.7263 65.0188L33.764 65.0251C38.0998 65.7451 42.1933 67.1891 45.7002 69.4626L45.7237 69.4779L45.7476 69.4926C49.4176 71.7567 52.4639 74.9526 55.0316 78.4339L95.8073 136.91L95.815 136.921C99.6637 142.378 104.304 146.829 109.752 150.449L109.777 150.466L109.803 150.482C115.299 153.946 121.37 156.166 127.797 157.373L127.888 157.391L127.979 157.401L129.641 157.587C132.495 158.083 135.526 157.073 137.294 154.799C142.217 149.46 146.375 143.52 149.553 136.962C152.724 130.417 155.099 123.271 156.299 116.096C158.688 102.774 157.488 89.0627 152.918 76.1587L152.908 76.1301L152.897 76.1017C148.142 63.6449 140.438 52.3487 130.133 43.5964L130.01 43.474L129.929 43.392L129.84 43.318C126.513 40.5538 121.602 40.8508 118.589 43.864L118.588 43.865L118.392 44.0605L118.318 44.1351L118.25 44.2158L102.834 62.5002L86.4178 39.003L86.4062 38.9863L86.3943 38.9699C84.7745 36.7298 83.141 34.9106 81.4218 32.9968L81.3771 32.947L81.3298 32.8997C79.3863 30.9562 77.0906 29.2162 74.9529 27.596C74.8148 27.4913 74.6774 27.3871 74.5407 27.2835L74.4946 27.2484L74.4469 27.2156C70.7435 24.6665 65.5383 25.817 63.0685 29.4052L63.046 29.4379L63.0245 29.4714C60.5999 33.2455 61.3986 38.2196 65.227 40.941L65.2553 40.9611L65.2842 40.9804C66.8137 42.0049 68.2141 43.2004 69.6961 44.5069C69.7889 44.6153 69.8819 44.7238 69.975 44.8325C71.0397 46.0744 72.1126 47.326 72.9144 48.433L114.463 107.881L114.472 107.894L114.482 107.908C118.068 112.898 122.522 117.58 128.053 121.068C130.749 122.81 133.587 124.317 136.583 125.481C136.023 126.902 135.381 128.332 134.667 129.781L134.66 129.794L134.653 129.808C132.833 133.618 130.571 137.252 127.903 140.449C124.632 139.671 121.435 138.344 118.678 136.51L118.646 136.489L118.613 136.468C114.893 134.159 111.858 131.15 109.342 127.535L109.341 127.534L68.5472 69.0304L68.5318 69.0084L68.516 68.9868C64.7246 63.7905 60.0802 59.1268 54.5768 55.67C49.0695 51.9993 42.9771 49.7687 36.52 48.7558L30.4156 47.6092C27.5384 47.0323 24.5252 48.2003 22.6284 50.5748C17.912 55.8994 13.758 61.8276 10.579 68.1856C8.1776 72.9883 6.39644 77.9554 5.00946 83.0856L4.92282 83.406V83.738V83.7382C4.45843 85.2275 4.10733 86.8194 3.80081 88.2091C3.74279 88.4721 3.68638 88.7279 3.63109 88.9744L3.61463 89.0478L3.60261 89.1221C1.42403 102.579 2.40251 116.296 7.1772 129.06C11.7565 141.779 19.7001 153.308 30.2466 162.069L31.9993 163.525L32.2737 163.251C35.1908 164.489 38.7383 163.98 41.211 161.652H41.3219L42.0715 160.755ZM128.029 98.2591L128.023 98.2504L112.774 76.5464L125.301 61.7019C130.52 67.5729 134.672 74.4303 137.495 81.881C140.633 90.6616 141.699 99.8821 140.687 109.173C139.4 108.561 138.139 107.884 136.867 107.141L136.587 106.977C133.239 104.716 130.49 101.794 128.029 98.2591ZM22.6704 123.453C19.3029 114.35 18.2413 104.799 19.4825 95.3359C21.6978 96.0565 23.7815 97.0533 25.6867 98.316C29.4551 100.823 32.5077 103.874 35.0247 107.474L35.0253 107.475L48.7355 127.067L34.8327 143.66C29.4669 137.786 25.3308 130.927 22.681 123.482L22.6758 123.468L22.6704 123.453Z" stroke="url(#paint0_linear_8389_5108)" stroke-width="5"/>
<mask id="path-2-outside-1_8389_5108" maskUnits="userSpaceOnUse" x="190" y="44" width="761" height="157" fill="black">
<rect fill="white" x="190" y="44" width="761" height="157"/>
<path d="M195.5 160V52H211.4L264.575 132.25V52H280.475V160H264.575L211.4 79.675V160H195.5ZM337.333 162.25C329.283 162.25 322.208 160.5 316.108 157C310.058 153.45 305.333 148.525 301.933 142.225C298.583 135.875 296.908 128.525 296.908 120.175C296.908 111.325 298.558 103.65 301.858 97.15C305.208 90.65 309.858 85.625 315.808 82.075C321.758 78.525 328.683 76.75 336.583 76.75C344.833 76.75 351.858 78.675 357.658 82.525C363.458 86.325 367.783 91.75 370.633 98.8C373.533 105.85 374.683 114.225 374.083 123.925H358.408V118.225C358.308 108.825 356.508 101.875 353.008 97.375C349.558 92.875 344.283 90.625 337.183 90.625C329.333 90.625 323.433 93.1 319.483 98.05C315.533 103 313.558 110.15 313.558 119.5C313.558 128.4 315.533 135.3 319.483 140.2C323.433 145.05 329.133 147.475 336.583 147.475C341.483 147.475 345.708 146.375 349.258 144.175C352.858 141.925 355.658 138.725 357.658 134.575L373.033 139.45C369.883 146.7 365.108 152.325 358.708 156.325C352.308 160.275 345.183 162.25 337.333 162.25ZM308.458 123.925V111.7H366.283V123.925H308.458ZM426.085 162.25C417.985 162.25 410.96 160.425 405.01 156.775C399.06 153.125 394.46 148.1 391.21 141.7C388.01 135.25 386.41 127.825 386.41 119.425C386.41 110.975 388.06 103.55 391.36 97.15C394.66 90.7 399.285 85.7 405.235 82.15C411.185 78.55 418.135 76.75 426.085 76.75C434.185 76.75 441.21 78.575 447.16 82.225C453.11 85.875 457.71 90.9 460.96 97.3C464.21 103.7 465.835 111.075 465.835 119.425C465.835 127.875 464.185 135.325 460.885 141.775C457.635 148.175 453.035 153.2 447.085 156.85C441.135 160.45 434.135 162.25 426.085 162.25ZM426.085 147.475C433.835 147.475 439.61 144.875 443.41 139.675C447.26 134.425 449.185 127.675 449.185 119.425C449.185 110.975 447.235 104.225 443.335 99.175C439.485 94.075 433.735 91.525 426.085 91.525C420.835 91.525 416.51 92.725 413.11 95.125C409.71 97.475 407.185 100.75 405.535 104.95C403.885 109.1 403.06 113.925 403.06 119.425C403.06 127.925 405.01 134.725 408.91 139.825C412.81 144.925 418.535 147.475 426.085 147.475ZM539.166 160V120.175C539.166 117.025 538.891 113.8 538.341 110.5C537.841 107.15 536.841 104.05 535.341 101.2C533.891 98.35 531.816 96.05 529.116 94.3C526.466 92.55 522.991 91.675 518.691 91.675C515.891 91.675 513.241 92.15 510.741 93.1C508.241 94 506.041 95.475 504.141 97.525C502.291 99.575 500.816 102.275 499.716 105.625C498.666 108.975 498.141 113.05 498.141 117.85L488.391 114.175C488.391 106.825 489.766 100.35 492.516 94.75C495.266 89.1 499.216 84.7 504.366 81.55C509.516 78.4 515.741 76.825 523.041 76.825C528.641 76.825 533.341 77.725 537.141 79.525C540.941 81.325 544.016 83.7 546.366 86.65C548.766 89.55 550.591 92.725 551.841 96.175C553.091 99.625 553.941 103 554.391 106.3C554.841 109.6 555.066 112.5 555.066 115V160H539.166ZM482.241 160V79H496.266V102.4H498.141V160H482.241ZM613.752 162.25C606.002 162.25 599.002 160.925 592.752 158.275C586.552 155.575 581.427 151.75 577.377 146.8C573.377 141.8 570.777 135.875 569.577 129.025L585.927 126.55C587.577 133.15 591.027 138.3 596.277 142C601.527 145.65 607.652 147.475 614.652 147.475C619.002 147.475 623.002 146.8 626.652 145.45C630.302 144.05 633.227 142.075 635.427 139.525C637.677 136.925 638.802 133.825 638.802 130.225C638.802 128.275 638.452 126.55 637.752 125.05C637.102 123.55 636.177 122.25 634.977 121.15C633.827 120 632.402 119.025 630.702 118.225C629.052 117.375 627.227 116.65 625.227 116.05L597.552 107.875C594.852 107.075 592.102 106.05 589.302 104.8C586.502 103.5 583.927 101.825 581.577 99.775C579.277 97.675 577.402 95.1 575.952 92.05C574.502 88.95 573.777 85.2 573.777 80.8C573.777 74.15 575.477 68.525 578.877 63.925C582.327 59.275 586.977 55.775 592.827 53.425C598.677 51.025 605.227 49.825 612.477 49.825C619.777 49.925 626.302 51.225 632.052 53.725C637.852 56.225 642.652 59.825 646.452 64.525C650.302 69.175 652.952 74.825 654.402 81.475L637.602 84.325C636.852 80.275 635.252 76.8 632.802 73.9C630.352 70.95 627.352 68.7 623.802 67.15C620.252 65.55 616.402 64.725 612.252 64.675C608.252 64.575 604.577 65.175 601.227 66.475C597.927 67.775 595.277 69.6 593.277 71.95C591.327 74.3 590.352 77 590.352 80.05C590.352 83.05 591.227 85.475 592.977 87.325C594.727 89.175 596.877 90.65 599.427 91.75C602.027 92.8 604.602 93.675 607.152 94.375L627.102 100C629.602 100.7 632.427 101.65 635.577 102.85C638.777 104 641.852 105.625 644.802 107.725C647.802 109.825 650.277 112.625 652.227 116.125C654.177 119.575 655.152 123.925 655.152 129.175C655.152 134.625 654.052 139.425 651.852 143.575C649.652 147.675 646.627 151.125 642.777 153.925C638.977 156.675 634.577 158.75 629.577 160.15C624.577 161.55 619.302 162.25 613.752 162.25ZM688.385 160L663.635 78.925L679.16 79L696.11 134.575L713.21 79H726.71L743.81 134.575L760.76 79H776.21L751.46 160H738.86L719.96 101.35L700.985 160H688.385ZM807.975 162.25C801.975 162.25 796.95 161.15 792.9 158.95C788.85 156.7 785.775 153.75 783.675 150.1C781.625 146.4 780.6 142.35 780.6 137.95C780.6 133.85 781.325 130.25 782.775 127.15C784.225 124.05 786.375 121.425 789.225 119.275C792.075 117.075 795.575 115.3 799.725 113.95C803.325 112.9 807.4 111.975 811.95 111.175C816.5 110.375 821.275 109.625 826.275 108.925C831.325 108.225 836.325 107.525 841.275 106.825L835.575 109.975C835.675 103.625 834.325 98.925 831.525 95.875C828.775 92.775 824.025 91.225 817.275 91.225C813.025 91.225 809.125 92.225 805.575 94.225C802.025 96.175 799.55 99.425 798.15 103.975L783.525 99.475C785.525 92.525 789.325 87 794.925 82.9C800.575 78.8 808.075 76.75 817.425 76.75C824.675 76.75 830.975 78 836.325 80.5C841.725 82.95 845.675 86.85 848.175 92.2C849.475 94.85 850.275 97.65 850.575 100.6C850.875 103.55 851.025 106.725 851.025 110.125V160H837.15V141.475L839.85 143.875C836.5 150.075 832.225 154.7 827.025 157.75C821.875 160.75 815.525 162.25 807.975 162.25ZM810.75 149.425C815.2 149.425 819.025 148.65 822.225 147.1C825.425 145.5 828 143.475 829.95 141.025C831.9 138.575 833.175 136.025 833.775 133.375C834.625 130.975 835.1 128.275 835.2 125.275C835.35 122.275 835.425 119.875 835.425 118.075L840.525 119.95C835.575 120.7 831.075 121.375 827.025 121.975C822.975 122.575 819.3 123.175 816 123.775C812.75 124.325 809.85 125 807.3 125.8C805.15 126.55 803.225 127.45 801.525 128.5C799.875 129.55 798.55 130.825 797.55 132.325C796.6 133.825 796.125 135.65 796.125 137.8C796.125 139.9 796.65 141.85 797.7 143.65C798.75 145.4 800.35 146.8 802.5 147.85C804.65 148.9 807.4 149.425 810.75 149.425ZM908.525 162.25C900.775 162.25 894.275 160.375 889.025 156.625C883.775 152.825 879.8 147.7 877.1 141.25C874.4 134.8 873.05 127.525 873.05 119.425C873.05 111.325 874.375 104.05 877.025 97.6C879.725 91.15 883.675 86.075 888.875 82.375C894.125 78.625 900.575 76.75 908.225 76.75C915.825 76.75 922.375 78.625 927.875 82.375C933.425 86.075 937.7 91.15 940.7 97.6C943.7 104 945.2 111.275 945.2 119.425C945.2 127.525 943.7 134.825 940.7 141.325C937.75 147.775 933.525 152.875 928.025 156.625C922.575 160.375 916.075 162.25 908.525 162.25ZM870.425 196V79H884.375V137.275H886.175V196H870.425ZM906.35 148.075C911.35 148.075 915.475 146.8 918.725 144.25C922.025 141.7 924.475 138.275 926.075 133.975C927.725 129.625 928.55 124.775 928.55 119.425C928.55 114.125 927.725 109.325 926.075 105.025C924.475 100.725 922 97.3 918.65 94.75C915.3 92.2 911.025 90.925 905.825 90.925C900.925 90.925 896.875 92.125 893.675 94.525C890.525 96.925 888.175 100.275 886.625 104.575C885.125 108.875 884.375 113.825 884.375 119.425C884.375 125.025 885.125 129.975 886.625 134.275C888.125 138.575 890.5 141.95 893.75 144.4C897 146.85 901.2 148.075 906.35 148.075Z"/>
</mask>
<path d="M195.5 160H190.5V165H195.5V160ZM195.5 52V47H190.5V52H195.5ZM211.4 52L215.568 49.2382L214.085 47H211.4V52ZM264.575 132.25L260.407 135.012L269.575 148.848V132.25H264.575ZM264.575 52V47H259.575V52H264.575ZM280.475 52H285.475V47H280.475V52ZM280.475 160V165H285.475V160H280.475ZM264.575 160L260.406 162.76L261.889 165H264.575V160ZM211.4 79.675L215.569 76.915L206.4 63.0642V79.675H211.4ZM211.4 160V165H216.4V160H211.4ZM200.5 160V52H190.5V160H200.5ZM195.5 57H211.4V47H195.5V57ZM207.232 54.7618L260.407 135.012L268.743 129.488L215.568 49.2382L207.232 54.7618ZM269.575 132.25V52H259.575V132.25H269.575ZM264.575 57H280.475V47H264.575V57ZM275.475 52V160H285.475V52H275.475ZM280.475 155H264.575V165H280.475V155ZM268.744 157.24L215.569 76.915L207.231 82.435L260.406 162.76L268.744 157.24ZM206.4 79.675V160H216.4V79.675H206.4ZM211.4 155H195.5V165H211.4V155ZM316.108 157L313.578 161.312L313.599 161.325L313.62 161.337L316.108 157ZM301.933 142.225L297.511 144.558L297.522 144.579L297.533 144.6L301.933 142.225ZM301.858 97.15L297.414 94.8594L297.407 94.8729L297.4 94.8865L301.858 97.15ZM315.808 82.075L313.246 77.7812L313.246 77.7812L315.808 82.075ZM357.658 82.525L354.893 86.6908L354.906 86.6991L354.918 86.7073L357.658 82.525ZM370.633 98.8L365.998 100.674L366.003 100.688L366.009 100.702L370.633 98.8ZM374.083 123.925V128.925H378.783L379.074 124.234L374.083 123.925ZM358.408 123.925H353.408V128.925H358.408V123.925ZM358.408 118.225H363.408V118.198L363.408 118.172L358.408 118.225ZM353.008 97.375L349.04 100.417L349.051 100.431L349.061 100.445L353.008 97.375ZM319.483 98.05L323.391 101.169L323.391 101.169L319.483 98.05ZM319.483 140.2L315.591 143.338L315.598 143.348L315.606 143.357L319.483 140.2ZM349.258 144.175L351.892 148.425L351.9 148.42L351.908 148.415L349.258 144.175ZM357.658 134.575L359.169 129.809L355.036 128.498L353.154 132.404L357.658 134.575ZM373.033 139.45L377.619 141.442L379.828 136.359L374.544 134.684L373.033 139.45ZM358.708 156.325L361.334 160.58L361.346 160.572L361.358 160.565L358.708 156.325ZM308.458 123.925H303.458V128.925H308.458V123.925ZM308.458 111.7V106.7H303.458V111.7H308.458ZM366.283 111.7H371.283V106.7H366.283V111.7ZM366.283 123.925V128.925H371.283V123.925H366.283ZM337.333 157.25C330.028 157.25 323.835 155.669 318.597 152.663L313.62 161.337C320.581 165.331 328.538 167.25 337.333 167.25V157.25ZM318.639 152.688C313.394 149.61 309.308 145.363 306.333 139.85L297.533 144.6C301.358 151.687 306.722 157.29 313.578 161.312L318.639 152.688ZM306.356 139.892C303.442 134.37 301.908 127.845 301.908 120.175H291.908C291.908 129.205 293.724 137.38 297.511 144.558L306.356 139.892ZM301.908 120.175C301.908 111.945 303.441 105.078 306.317 99.4135L297.4 94.8865C293.675 102.222 291.908 110.705 291.908 120.175H301.908ZM306.303 99.4406C309.249 93.723 313.268 89.4131 318.37 86.3688L313.246 77.7812C306.449 81.8369 301.167 87.577 297.414 94.8594L306.303 99.4406ZM318.37 86.3688C323.442 83.3429 329.456 81.75 336.583 81.75V71.75C327.91 71.75 320.075 73.7071 313.246 77.7812L318.37 86.3688ZM336.583 81.75C344.035 81.75 350.055 83.479 354.893 86.6908L360.423 78.3592C353.662 73.871 345.632 71.75 336.583 71.75V81.75ZM354.918 86.7073C359.783 89.895 363.491 94.4729 365.998 100.674L375.269 96.926C372.076 89.027 367.133 82.755 360.398 78.3427L354.918 86.7073ZM366.009 100.702C368.553 106.887 369.658 114.47 369.093 123.616L379.074 124.234C379.708 113.98 378.513 104.813 375.257 96.8979L366.009 100.702ZM374.083 118.925H358.408V128.925H374.083V118.925ZM363.408 123.925V118.225H353.408V123.925H363.408ZM363.408 118.172C363.303 108.328 361.439 100.07 356.955 94.3053L349.061 100.445C351.578 103.68 353.313 109.322 353.408 118.278L363.408 118.172ZM356.976 94.3328C352.345 88.2914 345.405 85.625 337.183 85.625V95.625C343.161 95.625 346.772 97.4585 349.04 100.417L356.976 94.3328ZM337.183 85.625C328.213 85.625 320.698 88.5109 315.575 94.9313L323.391 101.169C326.168 97.6891 330.453 95.625 337.183 95.625V85.625ZM315.575 94.9313C310.651 101.102 308.558 109.537 308.558 119.5H318.558C318.558 110.763 320.416 104.898 323.391 101.169L315.575 94.9313ZM308.558 119.5C308.558 129.078 310.679 137.245 315.591 143.338L323.376 137.062C320.388 133.355 318.558 127.722 318.558 119.5H308.558ZM315.606 143.357C320.69 149.6 327.949 152.475 336.583 152.475V142.475C330.318 142.475 326.176 140.5 323.36 137.043L315.606 143.357ZM336.583 152.475C342.25 152.475 347.423 151.195 351.892 148.425L346.624 139.925C343.994 141.555 340.716 142.475 336.583 142.475V152.475ZM351.908 148.415C356.377 145.622 359.789 141.671 362.162 136.746L353.154 132.404C351.528 135.779 349.339 138.228 346.608 139.935L351.908 148.415ZM356.147 139.341L371.522 144.216L374.544 134.684L359.169 129.809L356.147 139.341ZM368.447 137.458C365.68 143.826 361.558 148.647 356.058 152.085L361.358 160.565C368.658 156.003 374.086 149.574 377.619 141.442L368.447 137.458ZM356.082 152.07C350.507 155.511 344.298 157.25 337.333 157.25V167.25C346.068 167.25 354.11 165.039 361.334 160.58L356.082 152.07ZM313.458 123.925V111.7H303.458V123.925H313.458ZM308.458 116.7H366.283V106.7H308.458V116.7ZM361.283 111.7V123.925H371.283V111.7H361.283ZM366.283 118.925H308.458V128.925H366.283V118.925ZM405.01 156.775L402.396 161.037L402.396 161.037L405.01 156.775ZM391.21 141.7L386.731 143.922L386.741 143.943L386.752 143.964L391.21 141.7ZM391.36 97.15L395.804 99.4414L395.808 99.4344L395.811 99.4274L391.36 97.15ZM405.235 82.15L407.797 86.4438L407.81 86.4359L407.823 86.4279L405.235 82.15ZM447.16 82.225L449.775 77.963L449.775 77.963L447.16 82.225ZM460.96 97.3L456.502 99.5639L456.502 99.5639L460.96 97.3ZM460.885 141.775L456.434 139.498L456.43 139.504L456.427 139.511L460.885 141.775ZM447.085 156.85L449.673 161.128L449.687 161.12L449.7 161.112L447.085 156.85ZM443.41 139.675L439.378 136.718L439.373 136.725L443.41 139.675ZM443.335 99.175L439.345 102.188L439.361 102.209L439.378 102.231L443.335 99.175ZM413.11 95.125L415.953 99.2381L415.973 99.2241L415.994 99.2098L413.11 95.125ZM405.535 104.95L410.181 106.797L410.185 106.788L410.189 106.778L405.535 104.95ZM408.91 139.825L412.882 136.788L412.882 136.788L408.91 139.825ZM426.085 157.25C418.758 157.25 412.669 155.607 407.625 152.513L402.396 161.037C409.251 165.243 417.213 167.25 426.085 167.25V157.25ZM407.625 152.513C402.485 149.36 398.513 145.037 395.668 139.436L386.752 143.964C390.408 151.163 395.635 156.89 402.396 161.037L407.625 152.513ZM395.689 139.478C392.885 133.825 391.41 127.182 391.41 119.425H381.41C381.41 128.468 383.136 136.675 386.731 143.922L395.689 139.478ZM391.41 119.425C391.41 111.634 392.928 105.02 395.804 99.4414L386.916 94.8586C383.192 102.08 381.41 110.316 381.41 119.425H391.41ZM395.811 99.4274C398.704 93.7736 402.692 89.4899 407.797 86.4438L402.673 77.8562C395.879 81.9101 390.616 87.6264 386.909 94.8726L395.811 99.4274ZM407.823 86.4279C412.886 83.3648 418.914 81.75 426.085 81.75V71.75C417.356 71.75 409.484 73.7352 402.647 77.8721L407.823 86.4279ZM426.085 81.75C433.413 81.75 439.501 83.3926 444.546 86.487L449.775 77.963C442.919 73.7574 434.958 71.75 426.085 71.75V81.75ZM444.546 86.487C449.685 89.6398 453.658 93.9629 456.502 99.5639L465.418 95.0361C461.763 87.8371 456.535 82.1102 449.775 77.963L444.546 86.487ZM456.502 99.5639C459.342 105.156 460.835 111.733 460.835 119.425H470.835C470.835 110.417 469.078 102.244 465.418 95.0361L456.502 99.5639ZM460.835 119.425C460.835 127.215 459.318 133.861 456.434 139.498L465.336 144.052C469.053 136.789 470.835 128.535 470.835 119.425H460.835ZM456.427 139.511C453.583 145.112 449.61 149.435 444.471 152.588L449.7 161.112C456.46 156.965 461.688 151.238 465.343 144.039L456.427 139.511ZM444.497 152.572C439.444 155.629 433.369 157.25 426.085 157.25V167.25C434.902 167.25 442.827 165.271 449.673 161.128L444.497 152.572ZM426.085 152.475C435.065 152.475 442.509 149.383 447.447 142.625L439.373 136.725C436.712 140.367 432.606 142.475 426.085 142.475V152.475ZM447.442 142.632C452.072 136.319 454.185 128.452 454.185 119.425H444.185C444.185 126.898 442.449 132.531 439.378 136.718L447.442 142.632ZM454.185 119.425C454.185 110.227 452.059 102.291 447.292 96.1189L439.378 102.231C442.411 106.159 444.185 111.723 444.185 119.425H454.185ZM447.326 96.1625C442.339 89.5573 434.956 86.525 426.085 86.525V96.525C432.514 96.525 436.631 98.5927 439.345 102.188L447.326 96.1625ZM426.085 86.525C420.074 86.525 414.668 87.9053 410.227 91.0402L415.994 99.2098C418.353 97.5447 421.596 96.525 426.085 96.525V86.525ZM410.267 91.0119C405.975 93.9785 402.86 98.0858 400.881 103.122L410.189 106.778C411.511 103.414 413.445 100.971 415.953 99.2381L410.267 91.0119ZM400.889 103.103C398.958 107.959 398.06 113.434 398.06 119.425H408.06C408.06 114.416 408.812 110.241 410.181 106.797L400.889 103.103ZM398.06 119.425C398.06 128.668 400.184 136.645 404.938 142.862L412.882 136.788C409.836 132.805 408.06 127.182 408.06 119.425H398.06ZM404.938 142.862C409.957 149.426 417.287 152.475 426.085 152.475V142.475C419.784 142.475 415.663 140.424 412.882 136.788L404.938 142.862ZM539.166 160H534.166V165H539.166V160ZM538.341 110.5L533.396 111.238L533.402 111.28L533.409 111.322L538.341 110.5ZM535.341 101.2L530.885 103.467L530.901 103.498L530.917 103.529L535.341 101.2ZM529.116 94.3L526.361 98.4723L526.379 98.4841L526.397 98.4958L529.116 94.3ZM510.741 93.1L512.435 97.8044L512.476 97.7895L512.518 97.7739L510.741 93.1ZM504.141 97.525L500.474 94.1262L500.452 94.1505L500.429 94.1752L504.141 97.525ZM499.716 105.625L494.966 104.065L494.955 104.097L494.945 104.13L499.716 105.625ZM498.141 117.85L496.378 122.529L503.141 125.078V117.85H498.141ZM488.391 114.175H483.391V117.634L486.628 118.854L488.391 114.175ZM492.516 94.75L497.004 96.9539L497.008 96.9461L497.012 96.9382L492.516 94.75ZM504.366 81.55L506.975 85.8154L506.975 85.8154L504.366 81.55ZM537.141 79.525L539.282 75.0063L539.282 75.0063L537.141 79.525ZM546.366 86.65L542.456 89.7654L542.485 89.8019L542.514 89.8378L546.366 86.65ZM551.841 96.175L547.14 97.8782L547.14 97.8782L551.841 96.175ZM554.391 106.3L559.346 105.624L559.346 105.624L554.391 106.3ZM555.066 160V165H560.066V160H555.066ZM482.241 160H477.241V165H482.241V160ZM482.241 79V74H477.241V79H482.241ZM496.266 79H501.266V74H496.266V79ZM496.266 102.4H491.266V107.4H496.266V102.4ZM498.141 102.4H503.141V97.4H498.141V102.4ZM498.141 160V165H503.141V160H498.141ZM544.166 160V120.175H534.166V160H544.166ZM544.166 120.175C544.166 116.733 543.866 113.233 543.273 109.678L533.409 111.322C533.917 114.367 534.166 117.317 534.166 120.175H544.166ZM543.287 109.762C542.708 105.885 541.541 102.244 539.766 98.8713L530.917 103.529C532.142 105.856 532.975 108.415 533.396 111.238L543.287 109.762ZM539.798 98.9327C537.946 95.2931 535.27 92.3298 531.836 90.1042L526.397 98.4958C528.363 99.7702 529.837 101.407 530.885 103.467L539.798 98.9327ZM531.872 90.1277C528.162 87.6777 523.633 86.675 518.691 86.675V96.675C522.349 96.675 524.771 97.4223 526.361 98.4723L531.872 90.1277ZM518.691 86.675C515.313 86.675 512.059 87.2505 508.965 88.4261L512.518 97.7739C514.424 97.0495 516.469 96.675 518.691 96.675V86.675ZM509.048 88.3956C505.756 89.5807 502.889 91.5207 500.474 94.1262L507.809 100.924C509.194 99.4293 510.727 98.4193 512.435 97.8044L509.048 88.3956ZM500.429 94.1752C498.002 96.8651 496.226 100.229 494.966 104.065L504.467 107.185C505.407 104.321 506.581 102.285 507.853 100.875L500.429 94.1752ZM494.945 104.13C493.699 108.104 493.141 112.715 493.141 117.85H503.141C503.141 113.385 503.633 109.846 504.488 107.12L494.945 104.13ZM499.905 113.171L490.155 109.496L486.628 118.854L496.378 122.529L499.905 113.171ZM493.391 114.175C493.391 107.454 494.646 101.756 497.004 96.9539L488.028 92.546C484.887 98.9438 483.391 106.196 483.391 114.175H493.391ZM497.012 96.9382C499.362 92.1096 502.674 88.4463 506.975 85.8154L501.757 77.2846C495.759 80.9537 491.17 86.0904 488.021 92.5618L497.012 96.9382ZM506.975 85.8154C511.19 83.2376 516.469 81.825 523.041 81.825V71.825C515.014 71.825 507.843 73.5624 501.757 77.2846L506.975 85.8154ZM523.041 81.825C528.135 81.825 532.053 82.6475 535.001 84.0437L539.282 75.0063C534.629 72.8025 529.148 71.825 523.041 71.825V81.825ZM535.001 84.0437C538.192 85.555 540.633 87.4777 542.456 89.7654L550.277 83.5346C547.4 79.9223 543.691 77.095 539.282 75.0063L535.001 84.0437ZM542.514 89.8378C544.558 92.307 546.091 94.9822 547.14 97.8782L556.542 94.4718C555.092 90.4678 552.975 86.793 550.218 83.4622L542.514 89.8378ZM547.14 97.8782C548.282 101.029 549.04 104.06 549.437 106.976L559.346 105.624C558.843 101.94 557.901 98.2211 556.542 94.4718L547.14 97.8782ZM549.437 106.976C549.866 110.12 550.066 112.786 550.066 115H560.066C560.066 112.214 559.817 109.08 559.346 105.624L549.437 106.976ZM550.066 115V160H560.066V115H550.066ZM555.066 155H539.166V165H555.066V155ZM487.241 160V79H477.241V160H487.241ZM482.241 84H496.266V74H482.241V84ZM491.266 79V102.4H501.266V79H491.266ZM496.266 107.4H498.141V97.4H496.266V107.4ZM493.141 102.4V160H503.141V102.4H493.141ZM498.141 155H482.241V165H498.141V155ZM592.752 158.275L590.755 162.859L590.777 162.869L590.8 162.878L592.752 158.275ZM577.377 146.8L573.472 149.923L573.489 149.945L573.507 149.966L577.377 146.8ZM569.577 129.025L568.828 124.081L563.769 124.847L564.652 129.888L569.577 129.025ZM585.927 126.55L590.777 125.337L589.674 120.926L585.178 121.606L585.927 126.55ZM596.277 142L593.396 146.087L593.409 146.096L593.422 146.105L596.277 142ZM626.652 145.45L628.386 150.14L628.414 150.129L628.442 150.118L626.652 145.45ZM635.427 139.525L631.646 136.253L631.641 136.259L635.427 139.525ZM637.752 125.05L633.164 127.038L633.191 127.102L633.221 127.164L637.752 125.05ZM634.977 121.15L631.441 124.686L631.518 124.762L631.598 124.836L634.977 121.15ZM630.702 118.225L628.412 122.67L628.491 122.711L628.573 122.749L630.702 118.225ZM625.227 116.05L626.663 111.261L626.653 111.258L626.643 111.255L625.227 116.05ZM597.552 107.875L596.131 112.669L596.135 112.67L597.552 107.875ZM589.302 104.8L587.196 109.335L587.23 109.351L587.263 109.366L589.302 104.8ZM581.577 99.775L578.205 103.467L578.247 103.506L578.29 103.543L581.577 99.775ZM575.952 92.05L571.423 94.1684L571.429 94.1826L571.436 94.1968L575.952 92.05ZM578.877 63.925L574.861 60.9458L574.856 60.953L578.877 63.925ZM592.827 53.425L594.69 58.0646L594.707 58.0578L594.724 58.0508L592.827 53.425ZM612.477 49.825L612.545 44.8255L612.511 44.825H612.477V49.825ZM632.052 53.725L630.058 58.3103L630.065 58.3135L630.072 58.3166L632.052 53.725ZM646.452 64.525L642.563 67.6686L642.582 67.6913L642.6 67.7137L646.452 64.525ZM654.402 81.475L655.238 86.4046L660.403 85.5284L659.287 80.4098L654.402 81.475ZM637.602 84.325L632.685 85.2354L633.582 90.0783L638.438 89.2546L637.602 84.325ZM632.802 73.9L628.955 77.0945L628.969 77.1107L628.982 77.1268L632.802 73.9ZM623.802 67.15L621.747 71.7084L621.774 71.7205L621.801 71.7323L623.802 67.15ZM612.252 64.675L612.127 69.6734L612.159 69.6742L612.191 69.6746L612.252 64.675ZM601.227 66.475L599.418 61.8137L599.406 61.8183L599.394 61.823L601.227 66.475ZM593.277 71.95L589.469 68.7094L589.449 68.7331L589.429 68.7571L593.277 71.95ZM599.427 91.75L597.446 96.3411L597.5 96.3643L597.554 96.3862L599.427 91.75ZM607.152 94.375L608.508 89.5626L608.492 89.5579L608.475 89.5534L607.152 94.375ZM627.102 100L625.745 104.812L625.753 104.815L627.102 100ZM635.577 102.85L633.797 107.522L633.841 107.539L633.886 107.555L635.577 102.85ZM644.802 107.725L641.902 111.798L641.918 111.81L641.934 111.821L644.802 107.725ZM652.227 116.125L647.859 118.559L647.866 118.572L647.874 118.585L652.227 116.125ZM651.852 143.575L656.257 145.939L656.263 145.928L656.269 145.917L651.852 143.575ZM642.777 153.925L645.708 157.976L645.717 157.969L642.777 153.925ZM629.577 160.15L628.228 155.335L628.228 155.335L629.577 160.15ZM613.752 157.25C606.578 157.25 600.255 156.025 594.703 153.672L590.8 162.878C597.749 165.825 605.425 167.25 613.752 167.25V157.25ZM594.748 153.691C589.233 151.289 584.765 147.934 581.246 143.634L573.507 149.966C578.089 155.566 583.87 159.861 590.755 162.859L594.748 153.691ZM581.281 143.677C577.85 139.388 575.569 134.258 574.502 128.162L564.652 129.888C565.984 137.492 568.903 144.212 573.472 149.923L581.281 143.677ZM570.325 133.969L586.675 131.494L585.178 121.606L568.828 124.081L570.325 133.969ZM581.076 127.763C582.998 135.451 587.105 141.653 593.396 146.087L599.157 137.913C594.948 134.947 592.155 130.849 590.777 125.337L581.076 127.763ZM593.422 146.105C599.59 150.393 606.732 152.475 614.652 152.475V142.475C608.571 142.475 603.463 140.907 599.131 137.895L593.422 146.105ZM614.652 152.475C619.524 152.475 624.119 151.718 628.386 150.14L624.917 140.76C621.884 141.882 618.479 142.475 614.652 142.475V152.475ZM628.442 150.118C632.738 148.471 636.392 146.06 639.212 142.791L631.641 136.259C630.061 138.09 627.865 139.629 624.861 140.782L628.442 150.118ZM639.207 142.797C642.283 139.243 643.802 134.965 643.802 130.225H633.802C633.802 132.685 633.07 134.607 631.646 136.253L639.207 142.797ZM643.802 130.225C643.802 127.673 643.342 125.205 642.282 122.936L633.221 127.164C633.561 127.895 633.802 128.877 633.802 130.225H643.802ZM642.339 123.062C641.411 120.92 640.075 119.041 638.355 117.464L631.598 124.836C632.278 125.459 632.792 126.18 633.164 127.038L642.339 123.062ZM638.512 117.614C636.896 115.998 634.973 114.709 632.831 113.701L628.573 122.749C629.83 123.341 630.757 124.002 631.441 124.686L638.512 117.614ZM632.991 113.78C631.037 112.773 628.922 111.938 626.663 111.261L623.79 120.839C625.531 121.362 627.066 121.977 628.412 122.67L632.991 113.78ZM626.643 111.255L598.968 103.08L596.135 112.67L623.81 120.845L626.643 111.255ZM598.972 103.081C596.5 102.349 593.957 101.403 591.34 100.234L587.263 109.366C590.247 110.697 593.203 111.801 596.131 112.669L598.972 103.081ZM591.407 100.265C589.039 99.1657 586.861 97.7502 584.863 96.0072L578.29 103.543C580.992 105.9 583.964 107.834 587.196 109.335L591.407 100.265ZM584.948 96.0826C583.165 94.4545 581.663 92.4184 580.467 89.9032L571.436 94.1968C573.14 97.7816 575.388 100.896 578.205 103.467L584.948 96.0826ZM580.481 89.9316C579.416 87.6558 578.777 84.6694 578.777 80.8H568.777C568.777 85.7306 569.587 90.2442 571.423 94.1684L580.481 89.9316ZM578.777 80.8C578.777 75.0396 580.233 70.5021 582.897 66.897L574.856 60.953C570.72 66.5479 568.777 73.2604 568.777 80.8H578.777ZM582.892 66.9042C585.743 63.0611 589.618 60.1021 594.69 58.0646L590.963 48.7853C584.335 51.4479 578.91 55.4888 574.861 60.9458L582.892 66.9042ZM594.724 58.0508C599.89 55.9314 605.783 54.825 612.477 54.825V44.825C604.67 44.825 597.463 46.1186 590.929 48.7991L594.724 58.0508ZM612.408 54.8245C619.153 54.9169 625.007 56.1144 630.058 58.3103L634.045 49.1396C627.596 46.3355 620.4 44.9331 612.545 44.8255L612.408 54.8245ZM630.072 58.3166C635.163 60.5107 639.296 63.6275 642.563 67.6686L650.34 61.3814C646.007 56.0225 640.54 51.9393 634.031 49.1334L630.072 58.3166ZM642.6 67.7137C645.879 71.674 648.215 76.5699 649.516 82.5402L659.287 80.4098C657.689 73.0801 654.724 66.676 650.303 61.3363L642.6 67.7137ZM653.565 76.5454L636.765 79.3954L638.438 89.2546L655.238 86.4046L653.565 76.5454ZM642.518 83.4145C641.624 78.585 639.679 74.2927 636.621 70.6732L628.982 77.1268C630.824 79.3073 632.08 81.965 632.685 85.2354L642.518 83.4145ZM636.648 70.7055C633.694 67.1489 630.06 64.4267 625.802 62.5677L621.801 71.7323C624.643 72.9733 627.009 74.7511 628.955 77.0945L636.648 70.7055ZM625.856 62.5916C621.638 60.6905 617.104 59.7331 612.312 59.6754L612.191 69.6746C615.699 69.7169 618.865 70.4094 621.747 71.7084L625.856 62.5916ZM612.377 59.6766C607.791 59.5619 603.45 60.2489 599.418 61.8137L603.035 71.1363C605.703 70.1011 608.712 69.5881 612.127 69.6734L612.377 59.6766ZM599.394 61.823C595.445 63.3787 592.076 65.646 589.469 68.7094L597.084 75.1906C598.477 73.554 600.408 72.1713 603.059 71.127L599.394 61.823ZM589.429 68.7571C586.735 72.0033 585.352 75.8324 585.352 80.05H595.352C595.352 78.1676 595.918 76.5967 597.124 75.1429L589.429 68.7571ZM585.352 80.05C585.352 84.0851 586.562 87.8199 589.344 90.761L596.609 83.889C595.891 83.1301 595.352 82.0149 595.352 80.05H585.352ZM589.344 90.761C591.602 93.1473 594.33 94.9967 597.446 96.3411L601.407 87.1589C599.423 86.3033 597.852 85.2027 596.609 83.889L589.344 90.761ZM597.554 96.3862C600.323 97.5043 603.081 98.4425 605.828 99.1966L608.475 89.5534C606.122 88.9075 603.73 88.0957 601.299 87.1138L597.554 96.3862ZM605.795 99.1874L625.745 104.812L628.458 95.1876L608.508 89.5626L605.795 99.1874ZM625.753 104.815C628.072 105.464 630.749 106.361 633.797 107.522L637.357 98.1776C634.104 96.9385 631.131 95.936 628.45 95.1852L625.753 104.815ZM633.886 107.555C636.629 108.541 639.3 109.946 641.902 111.798L647.701 103.652C644.403 101.304 640.924 99.4588 637.268 98.1446L633.886 107.555ZM641.934 111.821C644.258 113.448 646.242 115.656 647.859 118.559L656.594 113.691C654.312 109.594 651.345 106.202 647.669 103.629L641.934 111.821ZM647.874 118.585C649.284 121.08 650.152 124.516 650.152 129.175H660.152C660.152 123.334 659.069 118.07 656.579 113.665L647.874 118.585ZM650.152 129.175C650.152 133.94 649.194 137.912 647.434 141.233L656.269 145.917C658.909 140.938 660.152 135.31 660.152 129.175H650.152ZM647.446 141.211C645.61 144.632 643.092 147.513 639.836 149.881L645.717 157.969C650.161 154.737 653.693 150.718 656.257 145.939L647.446 141.211ZM639.845 149.874C636.572 152.243 632.72 154.077 628.228 155.335L630.925 164.965C636.433 163.423 641.381 161.107 645.708 157.976L639.845 149.874ZM628.228 155.335C623.696 156.604 618.877 157.25 613.752 157.25V167.25C619.726 167.25 625.457 166.496 630.925 164.965L628.228 155.335ZM688.385 160L683.603 161.46L684.683 165H688.385V160ZM663.635 78.925L663.659 73.9251L656.871 73.8923L658.853 80.3848L663.635 78.925ZM679.16 79L683.942 77.5414L682.868 74.0179L679.184 74.0001L679.16 79ZM696.11 134.575L691.327 136.034L696.089 151.645L700.889 136.045L696.11 134.575ZM713.21 79V74H709.517L708.431 77.5296L713.21 79ZM726.71 79L731.489 77.5296L730.403 74H726.71V79ZM743.81 134.575L739.031 136.045L743.831 151.645L748.592 136.034L743.81 134.575ZM760.76 79V74H757.057L755.977 77.5414L760.76 79ZM776.21 79L780.992 80.4611L782.966 74H776.21V79ZM751.46 160V165H755.16L756.242 161.461L751.46 160ZM738.86 160L734.101 161.534L735.218 165H738.86V160ZM719.96 101.35L724.719 99.8164L719.969 85.0776L715.203 99.8109L719.96 101.35ZM700.985 160V165H704.622L705.742 161.539L700.985 160ZM693.167 158.54L668.417 77.4651L658.853 80.3848L683.603 161.46L693.167 158.54ZM663.611 83.9249L679.136 83.9999L679.184 74.0001L663.659 73.9251L663.611 83.9249ZM674.377 80.4586L691.327 136.034L700.892 133.116L683.942 77.5414L674.377 80.4586ZM700.889 136.045L717.989 80.4704L708.431 77.5296L691.331 133.105L700.889 136.045ZM713.21 84H726.71V74H713.21V84ZM721.931 80.4704L739.031 136.045L748.589 133.105L731.489 77.5296L721.931 80.4704ZM748.592 136.034L765.542 80.4586L755.977 77.5414L739.027 133.116L748.592 136.034ZM760.76 84H776.21V74H760.76V84ZM771.428 77.5389L746.678 158.539L756.242 161.461L780.992 80.4611L771.428 77.5389ZM751.46 155H738.86V165H751.46V155ZM743.619 158.466L724.719 99.8164L715.201 102.884L734.101 161.534L743.619 158.466ZM715.203 99.8109L696.228 158.461L705.742 161.539L724.717 102.889L715.203 99.8109ZM700.985 155H688.385V165H700.985V155ZM792.9 158.95L790.471 163.321L790.492 163.332L790.513 163.344L792.9 158.95ZM783.675 150.1L779.301 152.523L779.321 152.558L779.341 152.593L783.675 150.1ZM782.775 127.15L778.246 125.032L778.246 125.032L782.775 127.15ZM789.225 119.275L792.236 123.267L792.258 123.25L792.28 123.233L789.225 119.275ZM799.725 113.95L798.325 109.15L798.251 109.171L798.178 109.195L799.725 113.95ZM811.95 111.175L812.815 116.099L812.815 116.099L811.95 111.175ZM826.275 108.925L825.588 103.972L825.581 103.973L826.275 108.925ZM841.275 106.825L843.693 111.201L840.575 101.874L841.275 106.825ZM835.575 109.975L830.575 109.896L830.439 118.526L837.993 114.351L835.575 109.975ZM831.525 95.875L827.784 99.1931L827.813 99.225L827.841 99.2564L831.525 95.875ZM805.575 94.225L807.982 98.6074L808.005 98.5944L808.029 98.5812L805.575 94.225ZM798.15 103.975L796.679 108.754L801.458 110.224L802.929 105.445L798.15 103.975ZM783.525 99.475L778.72 98.0923L777.362 102.81L782.054 104.254L783.525 99.475ZM794.925 82.9L791.988 78.8532L791.979 78.8594L791.971 78.8657L794.925 82.9ZM836.325 80.5L834.208 85.0298L834.233 85.0417L834.259 85.0533L836.325 80.5ZM848.175 92.2L843.645 94.3167L843.665 94.3596L843.686 94.4021L848.175 92.2ZM850.575 100.6L845.6 101.106L845.6 101.106L850.575 100.6ZM851.025 160V165H856.025V160H851.025ZM837.15 160H832.15V165H837.15V160ZM837.15 141.475L840.471 137.738L832.15 130.341V141.475H837.15ZM839.85 143.875L844.249 146.252L846.131 142.768L843.171 140.138L839.85 143.875ZM827.025 157.75L829.541 162.07L829.548 162.067L829.554 162.063L827.025 157.75ZM822.225 147.1L824.404 151.6L824.433 151.586L824.461 151.572L822.225 147.1ZM829.95 141.025L826.037 137.911L826.037 137.911L829.95 141.025ZM833.775 133.375L829.061 131.706L828.963 131.983L828.898 132.271L833.775 133.375ZM835.2 125.275L830.206 125.025L830.204 125.067L830.202 125.108L835.2 125.275ZM835.425 118.075L837.15 113.382L830.425 110.91V118.075H835.425ZM840.525 119.95L841.274 124.894L842.25 115.257L840.525 119.95ZM827.025 121.975L827.757 126.921L827.757 126.921L827.025 121.975ZM816 123.775L816.834 128.705L816.864 128.7L816.894 128.694L816 123.775ZM807.3 125.8L805.803 121.029L805.727 121.053L805.653 121.079L807.3 125.8ZM801.525 128.5L798.897 124.246L798.869 124.264L798.84 124.282L801.525 128.5ZM797.55 132.325L793.389 129.551L793.357 129.6L793.326 129.65L797.55 132.325ZM797.7 143.65L793.381 146.169L793.396 146.196L793.412 146.222L797.7 143.65ZM802.5 147.85L800.305 152.343L800.305 152.343L802.5 147.85ZM807.975 157.25C802.564 157.25 798.416 156.256 795.286 154.556L790.513 163.344C795.484 166.044 801.385 167.25 807.975 167.25V157.25ZM795.328 154.579C791.99 152.725 789.611 150.392 788.008 147.607L779.341 152.593C781.938 157.108 785.709 160.675 790.471 163.321L795.328 154.579ZM788.048 147.677C786.426 144.749 785.6 141.538 785.6 137.95H775.6C775.6 143.162 776.823 148.051 779.301 152.523L788.048 147.677ZM785.6 137.95C785.6 134.439 786.219 131.587 787.304 129.268L778.246 125.032C776.43 128.913 775.6 133.261 775.6 137.95H785.6ZM787.304 129.268C788.393 126.94 790.008 124.947 792.236 123.267L786.213 115.283C782.741 117.903 780.056 121.16 778.246 125.032L787.304 129.268ZM792.28 123.233C794.592 121.448 797.554 119.914 801.271 118.705L798.178 109.195C793.595 110.686 789.557 112.702 786.169 115.317L792.28 123.233ZM801.125 118.75C804.514 117.761 808.406 116.875 812.815 116.099L811.084 106.251C806.393 107.075 802.135 108.039 798.325 109.15L801.125 118.75ZM812.815 116.099C817.303 115.31 822.02 114.569 826.968 113.877L825.581 103.973C820.529 104.681 815.696 105.44 811.084 106.251L812.815 116.099ZM826.961 113.878C832.016 113.177 837.02 112.476 841.975 111.776L840.575 101.874C835.629 102.574 830.634 103.273 825.588 103.972L826.961 113.878ZM838.856 102.449L833.156 105.599L837.993 114.351L843.693 111.201L838.856 102.449ZM840.574 110.054C840.684 103.088 839.236 96.8819 835.208 92.4936L827.841 99.2564C829.413 100.968 830.666 104.162 830.575 109.896L840.574 110.054ZM835.265 92.5569C831.109 87.8721 824.58 86.225 817.275 86.225V96.225C823.47 96.225 826.44 97.6778 827.784 99.1931L835.265 92.5569ZM817.275 86.225C812.203 86.225 807.452 87.4282 803.12 89.8688L808.029 98.5812C810.797 97.0218 813.846 96.225 817.275 96.225V86.225ZM803.167 89.8426C798.281 92.5267 795.081 96.9461 793.371 102.505L802.929 105.445C804.018 101.904 805.768 99.8233 807.982 98.6074L803.167 89.8426ZM799.62 99.1961L784.995 94.6961L782.054 104.254L796.679 108.754L799.62 99.1961ZM788.33 100.858C790.037 94.9242 793.212 90.351 797.878 86.9343L791.971 78.8657C785.438 83.649 781.012 90.1258 778.72 98.0923L788.33 100.858ZM797.861 86.9468C802.41 83.6459 808.776 81.75 817.425 81.75V71.75C807.373 71.75 798.739 73.9541 791.988 78.8532L797.861 86.9468ZM817.425 81.75C824.106 81.75 829.654 82.9018 834.208 85.0298L838.441 75.9702C832.295 73.0982 825.243 71.75 817.425 71.75V81.75ZM834.259 85.0533C838.578 87.013 841.652 90.0516 843.645 94.3167L852.704 90.0833C849.698 83.6484 844.871 78.887 838.39 75.9467L834.259 85.0533ZM843.686 94.4021C844.723 96.5175 845.36 98.7428 845.6 101.106L855.549 100.094C855.189 96.5572 854.226 93.1825 852.664 89.9979L843.686 94.4021ZM845.6 101.106C845.881 103.866 846.025 106.87 846.025 110.125H856.025C856.025 106.58 855.868 103.234 855.549 100.094L845.6 101.106ZM846.025 110.125V160H856.025V110.125H846.025ZM851.025 155H837.15V165H851.025V155ZM842.15 160V141.475H832.15V160H842.15ZM833.828 145.212L836.528 147.612L843.171 140.138L840.471 137.738L833.828 145.212ZM835.451 141.498C832.461 147.032 828.782 150.923 824.495 153.437L829.554 162.063C835.667 158.477 840.539 153.118 844.249 146.252L835.451 141.498ZM824.508 153.43C820.3 155.881 814.873 157.25 807.975 157.25V167.25C816.177 167.25 823.449 165.619 829.541 162.07L824.508 153.43ZM810.75 154.425C815.77 154.425 820.376 153.551 824.404 151.6L820.045 142.6C817.673 143.749 814.63 144.425 810.75 144.425V154.425ZM824.461 151.572C828.219 149.693 831.398 147.234 833.862 144.139L826.037 137.911C824.601 139.716 822.63 141.307 819.989 142.628L824.461 151.572ZM833.862 144.139C836.209 141.19 837.861 137.967 838.651 134.479L828.898 132.271C828.488 134.083 827.59 135.96 826.037 137.911L833.862 144.139ZM838.488 135.044C839.536 132.083 840.083 128.865 840.197 125.442L830.202 125.108C830.116 127.685 829.713 129.867 829.061 131.706L838.488 135.044ZM840.193 125.525C840.345 122.488 840.425 119.995 840.425 118.075H830.425C830.425 119.755 830.354 122.062 830.206 125.025L840.193 125.525ZM833.699 122.768L838.799 124.643L842.25 115.257L837.15 113.382L833.699 122.768ZM839.776 115.006C834.83 115.756 830.335 116.43 826.292 117.029L827.757 126.921C831.814 126.32 836.319 125.644 841.274 124.894L839.776 115.006ZM826.292 117.029C822.199 117.635 818.469 118.244 815.105 118.856L816.894 128.694C820.13 128.106 823.75 127.515 827.757 126.921L826.292 117.029ZM815.165 118.845C811.741 119.425 808.613 120.148 805.803 121.029L808.796 130.571C811.086 129.852 813.759 129.225 816.834 128.705L815.165 118.845ZM805.653 121.079C803.207 121.932 800.945 122.981 798.897 124.246L804.152 132.754C805.504 131.919 807.093 131.168 808.946 130.521L805.653 121.079ZM798.84 124.282C796.653 125.673 794.807 127.425 793.389 129.551L801.71 135.098C802.292 134.225 803.096 133.427 804.209 132.718L798.84 124.282ZM793.326 129.65C791.771 132.104 791.125 134.904 791.125 137.8H801.125C801.125 136.396 801.428 135.546 801.774 135L793.326 129.65ZM791.125 137.8C791.125 140.778 791.881 143.598 793.381 146.169L802.019 141.131C801.418 140.102 801.125 139.022 801.125 137.8H791.125ZM793.412 146.222C795.04 148.936 797.439 150.943 800.305 152.343L804.694 143.357C803.26 142.657 802.459 141.864 801.987 141.078L793.412 146.222ZM800.305 152.343C803.356 153.833 806.925 154.425 810.75 154.425V144.425C807.875 144.425 805.943 143.967 804.694 143.357L800.305 152.343ZM889.025 156.625L886.093 160.675L886.106 160.685L886.119 160.694L889.025 156.625ZM877.1 141.25L881.712 139.319L881.712 139.319L877.1 141.25ZM877.025 97.6L872.413 95.6693L872.406 95.6846L872.4 95.6999L877.025 97.6ZM888.875 82.375L891.774 86.449L891.781 86.4437L888.875 82.375ZM927.875 82.375L925.058 86.5061L925.08 86.5208L925.101 86.5352L927.875 82.375ZM940.7 97.6L936.166 99.7087L936.17 99.7154L936.173 99.7222L940.7 97.6ZM940.7 141.325L936.16 139.23L936.157 139.238L936.153 139.245L940.7 141.325ZM928.025 156.625L925.208 152.494L925.2 152.5L925.191 152.506L928.025 156.625ZM870.425 196H865.425V201H870.425V196ZM870.425 79V74H865.425V79H870.425ZM884.375 79H889.375V74H884.375V79ZM884.375 137.275H879.375V142.275H884.375V137.275ZM886.175 137.275H891.175V132.275H886.175V137.275ZM886.175 196V201H891.175V196H886.175ZM918.725 144.25L915.668 140.294L915.653 140.305L915.639 140.316L918.725 144.25ZM926.075 133.975L921.4 132.202L921.394 132.217L921.389 132.231L926.075 133.975ZM926.075 105.025L921.389 106.769L921.398 106.793L921.407 106.816L926.075 105.025ZM918.65 94.75L921.678 90.7715L921.678 90.7715L918.65 94.75ZM893.675 94.525L890.675 90.525L890.66 90.5364L890.645 90.5478L893.675 94.525ZM886.625 104.575L881.921 102.879L881.913 102.904L881.904 102.928L886.625 104.575ZM886.625 134.275L891.346 132.628L891.346 132.628L886.625 134.275ZM893.75 144.4L890.74 148.393L890.74 148.393L893.75 144.4ZM908.525 157.25C901.603 157.25 896.174 155.587 891.931 152.556L886.119 160.694C892.376 165.163 899.947 167.25 908.525 167.25V157.25ZM891.957 152.575C887.51 149.356 884.086 144.991 881.712 139.319L872.488 143.181C875.514 150.409 880.04 156.294 886.093 160.675L891.957 152.575ZM881.712 139.319C879.305 133.57 878.05 126.966 878.05 119.425H868.05C868.05 128.084 869.495 136.03 872.488 143.181L881.712 139.319ZM878.05 119.425C878.05 111.873 879.284 105.258 881.65 99.5001L872.4 95.6999C869.466 102.842 868.05 110.777 868.05 119.425H878.05ZM881.637 99.5307C884.013 93.8558 887.405 89.5572 891.774 86.4489L885.976 78.301C879.945 82.5928 875.437 88.4442 872.413 95.6693L881.637 99.5307ZM891.781 86.4437C896.035 83.4054 901.418 81.75 908.225 81.75V71.75C899.732 71.75 892.215 73.8446 885.969 78.3063L891.781 86.4437ZM908.225 81.75C914.967 81.75 920.502 83.3998 925.058 86.5061L930.692 78.2439C924.248 73.8502 916.683 71.75 908.225 71.75V81.75ZM925.101 86.5352C929.836 89.6918 933.527 94.0336 936.166 99.7087L945.234 95.4913C941.873 88.2664 937.014 82.4582 930.649 78.2147L925.101 86.5352ZM936.173 99.7222C938.817 105.364 940.2 111.897 940.2 119.425H950.2C950.2 110.653 948.583 102.636 945.227 95.4778L936.173 99.7222ZM940.2 119.425C940.2 126.897 938.819 133.468 936.16 139.23L945.24 143.42C948.581 136.182 950.2 128.153 950.2 119.425H940.2ZM936.153 139.245C933.556 144.923 929.906 149.291 925.208 152.494L930.842 160.756C937.144 156.459 941.944 150.627 945.247 143.405L936.153 139.245ZM925.191 152.506C920.689 155.604 915.211 157.25 908.525 157.25V167.25C916.939 167.25 924.461 165.146 930.859 160.744L925.191 152.506ZM875.425 196V79H865.425V196H875.425ZM870.425 84H884.375V74H870.425V84ZM879.375 79V137.275H889.375V79H879.375ZM884.375 142.275H886.175V132.275H884.375V142.275ZM881.175 137.275V196H891.175V137.275H881.175ZM886.175 191H870.425V201H886.175V191ZM906.35 153.075C912.226 153.075 917.507 151.561 921.811 148.184L915.639 140.316C913.443 142.039 910.474 143.075 906.35 143.075V153.075ZM921.782 148.206C925.894 145.029 928.869 140.803 930.761 135.719L921.389 132.231C920.081 135.747 918.156 138.371 915.668 140.294L921.782 148.206ZM930.75 135.748C932.645 130.754 933.55 125.291 933.55 119.425H923.55C923.55 124.259 922.805 128.496 921.4 132.202L930.75 135.748ZM933.55 119.425C933.55 113.604 932.643 108.185 930.743 103.234L921.407 106.816C922.807 110.465 923.55 114.646 923.55 119.425H933.55ZM930.761 103.281C928.862 98.1772 925.849 93.9458 921.678 90.7715L915.622 98.7285C918.151 100.654 920.088 103.273 921.389 106.769L930.761 103.281ZM921.678 90.7715C917.27 87.4157 911.856 85.925 905.825 85.925V95.925C910.194 95.925 913.33 96.9843 915.622 98.7285L921.678 90.7715ZM905.825 85.925C900.092 85.925 894.92 87.341 890.675 90.525L896.675 98.525C898.83 96.909 901.758 95.925 905.825 95.925V85.925ZM890.645 90.5478C886.616 93.6171 883.746 97.8167 881.921 102.879L891.329 106.271C892.604 102.733 894.434 100.233 896.705 98.5022L890.645 90.5478ZM881.904 102.928C880.182 107.863 879.375 113.388 879.375 119.425H889.375C889.375 114.262 890.068 109.887 891.346 106.222L881.904 102.928ZM879.375 119.425C879.375 125.462 880.182 130.987 881.904 135.922L891.346 132.628C890.068 128.963 889.375 124.588 889.375 119.425H879.375ZM881.904 135.922C883.69 141.041 886.608 145.278 890.74 148.393L896.76 140.407C894.392 138.622 892.56 136.109 891.346 132.628L881.904 135.922ZM890.74 148.393C895.064 151.652 900.405 153.075 906.35 153.075V143.075C901.995 143.075 898.936 142.048 896.76 140.407L890.74 148.393Z" fill="url(#paint1_linear_8389_5108)" mask="url(#path-2-outside-1_8389_5108)"/>
<defs>
<linearGradient id="paint0_linear_8389_5108" x1="80" y1="28.3437" x2="80" y2="176.655" gradientUnits="userSpaceOnUse">
<stop stop-color="#005C97"/>
<stop offset="1" stop-color="#363795"/>
</linearGradient>
<linearGradient id="paint1_linear_8389_5108" x1="568.5" y1="0" x2="568.5" y2="205" gradientUnits="userSpaceOnUse">
<stop stop-color="#005C97"/>
<stop offset="1" stop-color="#363795"/>
</linearGradient>
</defs>
</svg>
