<svg width="947" height="205" viewBox="0 0 947 205" fill="none" xmlns="http://www.w3.org/2000/svg">
<path d="M26.8766 160.113C29.1901 162.036 32.8393 161.84 34.9573 159.348C34.9573 159.348 34.957 159.152 35.1525 159.152L53.6275 137.028L72.868 164.545C74.3994 166.663 76.1424 168.585 77.8693 170.508C79.5962 172.234 81.5187 173.978 83.6366 175.509C86.1455 177.431 89.795 176.861 91.5219 174.352C93.4443 171.664 92.8742 168.194 90.3653 166.272C88.8339 165.115 87.4815 163.763 86.1293 162.427C84.7771 161.075 83.4414 159.543 82.2847 157.816L41.4902 99.5084C37.8246 94.3113 33.4093 90.0755 28.2123 86.6217C24.1719 84.1127 19.9362 82.1903 15.3257 81.0499C16.0914 78.7365 17.0525 76.6186 18.0137 74.5006C20.3271 70.0693 23.0153 65.8335 26.29 61.9886L29.1736 62.5588C33.7842 63.3246 38.2154 64.8723 42.0602 67.3649C46.1005 69.8575 49.3754 73.3276 52.0635 76.977L92.858 135.48C96.5236 140.677 100.938 144.913 106.136 148.367C111.333 151.642 117.1 153.76 123.258 154.916L125.001 155.112C127.103 155.503 129.237 154.721 130.377 153.189C135.183 147.992 139.224 142.225 142.303 135.871C145.382 129.518 147.679 122.594 148.836 115.67C151.149 102.783 149.993 89.5053 145.561 76.9933C140.934 64.8723 133.44 53.908 123.437 45.4363L123.242 45.2408C120.928 43.3184 117.474 43.5139 115.356 45.6318L115.161 45.8273L97.6476 66.5992L79.3684 40.4347C77.837 38.3168 76.2889 36.5899 74.562 34.6675C72.6396 32.7451 70.3266 31.0182 68.0294 29.2749C65.5205 27.548 61.8547 28.3137 60.1278 30.8227C58.4009 33.5108 58.971 36.9809 61.6755 38.9033C63.4024 40.06 64.95 41.396 66.4814 42.7482C67.6381 44.1004 68.9743 45.6318 69.9518 46.984L111.512 106.449C114.966 111.255 119.201 115.686 124.398 118.961C127.673 121.079 131.127 122.805 134.793 123.962C134.027 126.276 133.049 128.573 131.909 130.886C129.791 135.318 127.087 139.553 123.828 143.203C119.788 142.437 115.748 140.889 112.294 138.592C108.253 136.083 104.979 132.825 102.291 128.964L61.4965 70.4603C57.8471 65.4588 53.4156 61.0274 48.2185 57.7691C43.0215 54.299 37.2542 52.181 31.0959 51.2198L24.9376 50.0631C23.0152 49.6721 20.8976 50.4541 19.5454 52.181C14.9348 57.3781 10.8942 63.1453 7.81506 69.3036C5.50164 73.9304 3.77502 78.7365 2.42282 83.738V84.129C1.85261 85.856 1.46148 87.7784 1.07048 89.5216C-1.04744 102.604 -0.0864379 115.882 4.52411 128.198C8.95545 140.515 16.6454 151.674 26.844 160.146L26.8766 160.113ZM130.589 109.316C126.745 106.807 123.666 103.549 120.977 99.6876L104.621 76.4068L120.211 57.932C126.565 64.4813 131.567 72.3664 134.841 81.0173C138.491 91.2159 139.452 101.985 137.725 112.77C135.232 111.809 132.919 110.652 130.606 109.3L130.589 109.316ZM12.442 92.1934C15.9122 92.9591 19.1704 94.3113 22.0703 96.2338C26.1106 98.9219 29.3855 102.197 32.0736 106.041L46.8825 127.204L29.9556 147.406C23.4063 140.857 18.4048 132.971 15.3257 124.321C11.4809 113.927 10.5196 102.962 12.442 92.1771V92.1934Z" fill="url(#paint0_linear_8389_5108)"/>
<path d="M190.5 160V52H206.4L259.575 132.25V52H275.475V160H259.575L206.4 79.675V160H190.5ZM332.333 162.25C324.283 162.25 317.208 160.5 311.108 157C305.058 153.45 300.333 148.525 296.933 142.225C293.583 135.875 291.908 128.525 291.908 120.175C291.908 111.325 293.558 103.65 296.858 97.15C300.208 90.65 304.858 85.625 310.808 82.075C316.758 78.525 323.683 76.75 331.583 76.75C339.833 76.75 346.858 78.675 352.658 82.525C358.458 86.325 362.783 91.75 365.633 98.8C368.533 105.85 369.683 114.225 369.083 123.925H353.408V118.225C353.308 108.825 351.508 101.875 348.008 97.375C344.558 92.875 339.283 90.625 332.183 90.625C324.333 90.625 318.433 93.1 314.483 98.05C310.533 103 308.558 110.15 308.558 119.5C308.558 128.4 310.533 135.3 314.483 140.2C318.433 145.05 324.133 147.475 331.583 147.475C336.483 147.475 340.708 146.375 344.258 144.175C347.858 141.925 350.658 138.725 352.658 134.575L368.033 139.45C364.883 146.7 360.108 152.325 353.708 156.325C347.308 160.275 340.183 162.25 332.333 162.25ZM303.458 123.925V111.7H361.283V123.925H303.458ZM421.085 162.25C412.985 162.25 405.96 160.425 400.01 156.775C394.06 153.125 389.46 148.1 386.21 141.7C383.01 135.25 381.41 127.825 381.41 119.425C381.41 110.975 383.06 103.55 386.36 97.15C389.66 90.7 394.285 85.7 400.235 82.15C406.185 78.55 413.135 76.75 421.085 76.75C429.185 76.75 436.21 78.575 442.16 82.225C448.11 85.875 452.71 90.9 455.96 97.3C459.21 103.7 460.835 111.075 460.835 119.425C460.835 127.875 459.185 135.325 455.885 141.775C452.635 148.175 448.035 153.2 442.085 156.85C436.135 160.45 429.135 162.25 421.085 162.25ZM421.085 147.475C428.835 147.475 434.61 144.875 438.41 139.675C442.26 134.425 444.185 127.675 444.185 119.425C444.185 110.975 442.235 104.225 438.335 99.175C434.485 94.075 428.735 91.525 421.085 91.525C415.835 91.525 411.51 92.725 408.11 95.125C404.71 97.475 402.185 100.75 400.535 104.95C398.885 109.1 398.06 113.925 398.06 119.425C398.06 127.925 400.01 134.725 403.91 139.825C407.81 144.925 413.535 147.475 421.085 147.475ZM534.166 160V120.175C534.166 117.025 533.891 113.8 533.341 110.5C532.841 107.15 531.841 104.05 530.341 101.2C528.891 98.35 526.816 96.05 524.116 94.3C521.466 92.55 517.991 91.675 513.691 91.675C510.891 91.675 508.241 92.15 505.741 93.1C503.241 94 501.041 95.475 499.141 97.525C497.291 99.575 495.816 102.275 494.716 105.625C493.666 108.975 493.141 113.05 493.141 117.85L483.391 114.175C483.391 106.825 484.766 100.35 487.516 94.75C490.266 89.1 494.216 84.7 499.366 81.55C504.516 78.4 510.741 76.825 518.041 76.825C523.641 76.825 528.341 77.725 532.141 79.525C535.941 81.325 539.016 83.7 541.366 86.65C543.766 89.55 545.591 92.725 546.841 96.175C548.091 99.625 548.941 103 549.391 106.3C549.841 109.6 550.066 112.5 550.066 115V160H534.166ZM477.241 160V79H491.266V102.4H493.141V160H477.241ZM608.752 162.25C601.002 162.25 594.002 160.925 587.752 158.275C581.552 155.575 576.427 151.75 572.377 146.8C568.377 141.8 565.777 135.875 564.577 129.025L580.927 126.55C582.577 133.15 586.027 138.3 591.277 142C596.527 145.65 602.652 147.475 609.652 147.475C614.002 147.475 618.002 146.8 621.652 145.45C625.302 144.05 628.227 142.075 630.427 139.525C632.677 136.925 633.802 133.825 633.802 130.225C633.802 128.275 633.452 126.55 632.752 125.05C632.102 123.55 631.177 122.25 629.977 121.15C628.827 120 627.402 119.025 625.702 118.225C624.052 117.375 622.227 116.65 620.227 116.05L592.552 107.875C589.852 107.075 587.102 106.05 584.302 104.8C581.502 103.5 578.927 101.825 576.577 99.775C574.277 97.675 572.402 95.1 570.952 92.05C569.502 88.95 568.777 85.2 568.777 80.8C568.777 74.15 570.477 68.525 573.877 63.925C577.327 59.275 581.977 55.775 587.827 53.425C593.677 51.025 600.227 49.825 607.477 49.825C614.777 49.925 621.302 51.225 627.052 53.725C632.852 56.225 637.652 59.825 641.452 64.525C645.302 69.175 647.952 74.825 649.402 81.475L632.602 84.325C631.852 80.275 630.252 76.8 627.802 73.9C625.352 70.95 622.352 68.7 618.802 67.15C615.252 65.55 611.402 64.725 607.252 64.675C603.252 64.575 599.577 65.175 596.227 66.475C592.927 67.775 590.277 69.6 588.277 71.95C586.327 74.3 585.352 77 585.352 80.05C585.352 83.05 586.227 85.475 587.977 87.325C589.727 89.175 591.877 90.65 594.427 91.75C597.027 92.8 599.602 93.675 602.152 94.375L622.102 100C624.602 100.7 627.427 101.65 630.577 102.85C633.777 104 636.852 105.625 639.802 107.725C642.802 109.825 645.277 112.625 647.227 116.125C649.177 119.575 650.152 123.925 650.152 129.175C650.152 134.625 649.052 139.425 646.852 143.575C644.652 147.675 641.627 151.125 637.777 153.925C633.977 156.675 629.577 158.75 624.577 160.15C619.577 161.55 614.302 162.25 608.752 162.25ZM683.385 160L658.635 78.925L674.16 79L691.11 134.575L708.21 79H721.71L738.81 134.575L755.76 79H771.21L746.46 160H733.86L714.96 101.35L695.985 160H683.385ZM802.975 162.25C796.975 162.25 791.95 161.15 787.9 158.95C783.85 156.7 780.775 153.75 778.675 150.1C776.625 146.4 775.6 142.35 775.6 137.95C775.6 133.85 776.325 130.25 777.775 127.15C779.225 124.05 781.375 121.425 784.225 119.275C787.075 117.075 790.575 115.3 794.725 113.95C798.325 112.9 802.4 111.975 806.95 111.175C811.5 110.375 816.275 109.625 821.275 108.925C826.325 108.225 831.325 107.525 836.275 106.825L830.575 109.975C830.675 103.625 829.325 98.925 826.525 95.875C823.775 92.775 819.025 91.225 812.275 91.225C808.025 91.225 804.125 92.225 800.575 94.225C797.025 96.175 794.55 99.425 793.15 103.975L778.525 99.475C780.525 92.525 784.325 87 789.925 82.9C795.575 78.8 803.075 76.75 812.425 76.75C819.675 76.75 825.975 78 831.325 80.5C836.725 82.95 840.675 86.85 843.175 92.2C844.475 94.85 845.275 97.65 845.575 100.6C845.875 103.55 846.025 106.725 846.025 110.125V160H832.15V141.475L834.85 143.875C831.5 150.075 827.225 154.7 822.025 157.75C816.875 160.75 810.525 162.25 802.975 162.25ZM805.75 149.425C810.2 149.425 814.025 148.65 817.225 147.1C820.425 145.5 823 143.475 824.95 141.025C826.9 138.575 828.175 136.025 828.775 133.375C829.625 130.975 830.1 128.275 830.2 125.275C830.35 122.275 830.425 119.875 830.425 118.075L835.525 119.95C830.575 120.7 826.075 121.375 822.025 121.975C817.975 122.575 814.3 123.175 811 123.775C807.75 124.325 804.85 125 802.3 125.8C800.15 126.55 798.225 127.45 796.525 128.5C794.875 129.55 793.55 130.825 792.55 132.325C791.6 133.825 791.125 135.65 791.125 137.8C791.125 139.9 791.65 141.85 792.7 143.65C793.75 145.4 795.35 146.8 797.5 147.85C799.65 148.9 802.4 149.425 805.75 149.425ZM903.525 162.25C895.775 162.25 889.275 160.375 884.025 156.625C878.775 152.825 874.8 147.7 872.1 141.25C869.4 134.8 868.05 127.525 868.05 119.425C868.05 111.325 869.375 104.05 872.025 97.6C874.725 91.15 878.675 86.075 883.875 82.375C889.125 78.625 895.575 76.75 903.225 76.75C910.825 76.75 917.375 78.625 922.875 82.375C928.425 86.075 932.7 91.15 935.7 97.6C938.7 104 940.2 111.275 940.2 119.425C940.2 127.525 938.7 134.825 935.7 141.325C932.75 147.775 928.525 152.875 923.025 156.625C917.575 160.375 911.075 162.25 903.525 162.25ZM865.425 196V79H879.375V137.275H881.175V196H865.425ZM901.35 148.075C906.35 148.075 910.475 146.8 913.725 144.25C917.025 141.7 919.475 138.275 921.075 133.975C922.725 129.625 923.55 124.775 923.55 119.425C923.55 114.125 922.725 109.325 921.075 105.025C919.475 100.725 917 97.3 913.65 94.75C910.3 92.2 906.025 90.925 900.825 90.925C895.925 90.925 891.875 92.125 888.675 94.525C885.525 96.925 883.175 100.275 881.625 104.575C880.125 108.875 879.375 113.825 879.375 119.425C879.375 125.025 880.125 129.975 881.625 134.275C883.125 138.575 885.5 141.95 888.75 144.4C892 146.85 896.2 148.075 901.35 148.075Z" fill="url(#paint1_linear_8389_5108)"/>
<defs>
<linearGradient id="paint0_linear_8389_5108" x1="75" y1="28.3437" x2="75" y2="176.655" gradientUnits="userSpaceOnUse">
<stop stop-color="#005C97"/>
<stop offset="1" stop-color="#363795"/>
</linearGradient>
<linearGradient id="paint1_linear_8389_5108" x1="563.5" y1="0" x2="563.5" y2="205" gradientUnits="userSpaceOnUse">
<stop stop-color="#005C97"/>
<stop offset="1" stop-color="#363795"/>
</linearGradient>
</defs>
</svg>
